<svg xmlns="http://www.w3.org/2000/svg" width="18.004" height="18.005" viewBox="0 0 18.004 18.005">
  <path id="home" d="M17.52,7.831h0L10.174.485a1.657,1.657,0,0,0-2.344,0L.489,7.826l-.007.008a1.657,1.657,0,0,0,1.1,2.824l.051,0h.293v5.405A1.942,1.942,0,0,0,3.868,18H6.742a.528.528,0,0,0,.528-.528V13.24a.886.886,0,0,1,.885-.885H9.849a.886.886,0,0,1,.885.885v4.238a.527.527,0,0,0,.528.528h2.874a1.942,1.942,0,0,0,1.94-1.94V10.66h.271A1.658,1.658,0,0,0,17.52,7.831Zm0,0" transform="translate(0 0.001)" fill="#805ad5"/>
</svg>
