<svg xmlns="http://www.w3.org/2000/svg" width="18.001" height="13.656" viewBox="0 0 18.001 13.656">
  <g id="tarefas" transform="translate(0 -76.862)">
    <g id="_x31_0_21_" transform="translate(0 76.862)">
      <g id="Grupo_457" data-name="Grupo 457" transform="translate(0 0)">
        <path id="Caminho_1031" data-name="Caminho 1031" d="M1.862,73.862a1.862,1.862,0,1,0,1.862,1.862A1.862,1.862,0,0,0,1.862,73.862Zm0,4.966A1.862,1.862,0,1,0,3.724,80.69,1.862,1.862,0,0,0,1.862,78.828Zm0,4.966a1.862,1.862,0,1,0,1.862,1.862A1.862,1.862,0,0,0,1.862,83.793Zm4.966-6.828h9.931a1.241,1.241,0,1,0,0-2.483H6.828a1.241,1.241,0,0,0,0,2.483Zm9.931,2.483H6.828a1.241,1.241,0,1,0,0,2.483h9.931a1.241,1.241,0,1,0,0-2.483Zm0,4.966H6.828a1.241,1.241,0,1,0,0,2.483h9.931a1.241,1.241,0,1,0,0-2.483Z" transform="translate(0 -73.862)" fill="#fff"/>
      </g>
    </g>
  </g>
</svg>
