<svg xmlns="http://www.w3.org/2000/svg" width="14" height="17.484" viewBox="0 0 14 17.484">
  <g id="user" transform="translate(95.02 -23)">
    <path id="Caminho_565" data-name="Caminho 565" d="M176.591,9.313c2.587,0,3.518-2.591,3.762-4.719.3-2.622-.939-4.595-3.762-4.595s-4.062,1.973-3.762,4.594C173.073,6.722,174,9.313,176.591,9.313Z" transform="translate(-264.612 23)" fill="#fff"/>
    <path id="Caminho_566" data-name="Caminho 566" d="M74.979,317.663a17.655,17.655,0,0,0-.269-2.468c-.175-.985-.4-2.428-1.257-3.07a7.034,7.034,0,0,0-1.71-.717,7.429,7.429,0,0,1-.758-.34,4.094,4.094,0,0,1-6.01,0,7.409,7.409,0,0,1-.758.34,7.031,7.031,0,0,0-1.71.717c-.86.642-1.082,2.085-1.257,3.07a17.646,17.646,0,0,0-.269,2.468c-.022.64.294.729.829.922a15.5,15.5,0,0,0,2.058.568,20.746,20.746,0,0,0,4.112.512,20.746,20.746,0,0,0,4.112-.512,15.476,15.476,0,0,0,2.058-.568C74.685,318.392,75,318.3,74.979,317.663Z" transform="translate(-156 -279.181)" fill="#fff"/>
  </g>
</svg>
