<svg xmlns="http://www.w3.org/2000/svg" width="195.312" height="33.288" viewBox="0 0 195.312 33.288">
  <g id="Workmize_Logotipo_Oficial_Horizontal_Em_Cores_Fundo_Escuro" data-name="Workmize Logotipo Oficial Horizontal Em Cores Fundo Escuro" transform="translate(-20.275 -16)">
    <g id="Grupo_23" data-name="Grupo 23" transform="translate(56.781 21.734)">
      <path id="Caminho_66" data-name="Caminho 66" d="M170.412,35.868,164.221,56a.815.815,0,0,1-.763.58h-4.545a.787.787,0,0,1-.763-.58l-2.2-7.107c-.305-.946-.549-1.83-.824-2.654q-.366,1.281-.824,2.745L152.142,56a.815.815,0,0,1-.763.58H146.9a.787.787,0,0,1-.763-.58L140,35.868a.823.823,0,0,1,.763-1.068h4.392a.787.787,0,0,1,.763.58l2.562,8.663c.275.946.58,1.952.854,2.989.305-1.007.61-2.044.915-3.02l2.684-8.632a.815.815,0,0,1,.763-.58h3.081a.787.787,0,0,1,.763.58l2.654,8.632q.5,1.647.915,3.02c.305-1.037.61-2.1.915-3.081l2.593-8.571a.845.845,0,0,1,.763-.58h4.24a.8.8,0,0,1,.641.336A.729.729,0,0,1,170.412,35.868Z" transform="translate(-139.959 -34.8)" fill="#fff"/>
    </g>
    <g id="Grupo_24" data-name="Grupo 24" transform="translate(86.045 21.429)">
      <path id="Caminho_67" data-name="Caminho 67" d="M247.216,33.8a11.2,11.2,0,1,0,11.347,11.194A11,11,0,0,0,247.216,33.8Zm0,16.959a5.516,5.516,0,0,1-5.49-5.765,5.5,5.5,0,1,1,10.981,0A5.5,5.5,0,0,1,247.216,50.759Z" transform="translate(-235.9 -33.8)" fill="#fff"/>
    </g>
    <g id="Grupo_25" data-name="Grupo 25" transform="translate(109.958 21.734)">
      <path id="Caminho_68" data-name="Caminho 68" d="M332.235,55.3,327.08,47.58a6.329,6.329,0,0,0,3.782-5.948,5.941,5.941,0,0,0-2.776-5.368,12.666,12.666,0,0,0-6.71-1.464h-6.253a.82.82,0,0,0-.824.824V55.755a.82.82,0,0,0,.824.824h4.24a.82.82,0,0,0,.824-.824V48.526h.946l4.911,7.686a.765.765,0,0,0,.671.366h4.85a.744.744,0,0,0,.7-.427A.856.856,0,0,0,332.235,55.3Zm-7.991-11.9a5.833,5.833,0,0,1-2.5.4h-1.556V40.107h1.037a7.305,7.305,0,0,1,3.05.458,1.344,1.344,0,0,1,.793,1.4A1.641,1.641,0,0,1,324.244,43.4Z" transform="translate(-314.3 -34.8)" fill="#fff"/>
    </g>
    <g id="Grupo_26" data-name="Grupo 26" transform="translate(129.632 21.765)">
      <path id="Caminho_69" data-name="Caminho 69" d="M397.62,56.19a.851.851,0,0,1-.732.458h-5.216a.8.8,0,0,1-.641-.336l-6.344-8.541v8.083a.82.82,0,0,1-.824.824h-4.24a.82.82,0,0,1-.824-.824V35.724a.82.82,0,0,1,.824-.824h4.24a.82.82,0,0,1,.824.824v7.015l5.917-7.5a.859.859,0,0,1,.641-.305h5a.815.815,0,0,1,.732.458.86.86,0,0,1-.091.854l-7.2,8.846,7.87,10.31A.8.8,0,0,1,397.62,56.19Z" transform="translate(-378.8 -34.9)" fill="#fff"/>
    </g>
    <g id="Grupo_27" data-name="Grupo 27" transform="translate(174.531 21.734)">
      <path id="Caminho_70" data-name="Caminho 70" d="M531.063,34.8h-4.24a.82.82,0,0,0-.824.824V55.755a.82.82,0,0,0,.824.824h4.24a.82.82,0,0,0,.824-.824V35.624A.82.82,0,0,0,531.063,34.8Zm-.549,20.406H527.4V36.173h3.111Z" transform="translate(-526 -34.8)" fill="#805ad5"/>
    </g>
    <g id="Grupo_28" data-name="Grupo 28" transform="translate(181.333 21.765)">
      <path id="Caminho_71" data-name="Caminho 71" d="M566.418,35.266a.03.03,0,0,0-.03-.031.81.81,0,0,0-.671-.336h-15.8a.82.82,0,0,0-.824.824v3.66a.82.82,0,0,0,.824.824h7.473l-8.937,15.159-.091.153v.031a1.1,1.1,0,0,0-.061.336v.031a.82.82,0,0,0,.824.824h16.441a.82.82,0,0,0,.824-.824v-3.66a.82.82,0,0,0-.824-.824h-8.114l8.968-15.159.061-.122a.03.03,0,0,1,.03-.031,1.1,1.1,0,0,0,.061-.336A1.047,1.047,0,0,0,566.418,35.266ZM555.834,51.4h0l-.092.153v.03a1.087,1.087,0,0,0-.061.305v.03a.82.82,0,0,0,.824.824h8.479v2.532H550.069L559.1,39.994a.094.094,0,0,1,.031-.061,1.083,1.083,0,0,0,.061-.305.993.993,0,0,0-.122-.427c0-.031-.031-.031-.031-.061a.81.81,0,0,0-.671-.336H550.5V36.273h14.275Z" transform="translate(-548.3 -34.9)" fill="#805ad5"/>
    </g>
    <g id="Grupo_29" data-name="Grupo 29" transform="translate(201.281 21.704)">
      <path id="Caminho_72" data-name="Caminho 72" d="M627.182,51.2h-7.595V47.755h6.161a.82.82,0,0,0,.824-.824V43.454a.82.82,0,0,0-.824-.824h-6.161V40.007h7.29a.82.82,0,0,0,.824-.824v-3.66a.82.82,0,0,0-.824-.824H614.523a.82.82,0,0,0-.823.824V55.655a.82.82,0,0,0,.823.824h12.658a.82.82,0,0,0,.824-.824v-3.66A.857.857,0,0,0,627.182,51.2Zm-.579,3.935h-11.53V36.1H626.3v2.532h-7.29a.82.82,0,0,0-.823.824V43.21a.82.82,0,0,0,.823.824h6.162v2.349h-6.162a.82.82,0,0,0-.823.824v4.606a.82.82,0,0,0,.823.824h7.6Z" transform="translate(-613.7 -34.7)" fill="#805ad5"/>
    </g>
    <g id="Grupo_33" data-name="Grupo 33" transform="translate(20.275 16)">
      <path id="Caminho_73" data-name="Caminho 73" d="M61.341,41.536l-.732.732c-.183.214-.4.4-.58.61l-2.013,2.013c-.427.427-.885.854-1.312,1.312-1.1,1.1-2.2,2.2-3.294,3.264l-.763.763L50.879,52l-3.843,3.843-5.765-5.765,2.044-2.044L49.751,41.6c1.8-1.8-1.007-4.606-2.806-2.806L45.785,39.95c-2.44,2.44-4.88,4.88-7.32,7.351L32.7,41.536l2.379-2.379,2.928-2.928L47.036,27.2l2.074,2.074,2.318,2.318,2.013,2.013,4.545,4.545c.671.7,1.373,1.373,2.044,2.044l1.251,1.251C61.28,41.475,61.311,41.505,61.341,41.536Z" transform="translate(-28.91 -23.784)" fill="#fff"/>
      <g id="Grupo_32" data-name="Grupo 32" transform="translate(0 0)">
        <g id="Grupo_31" data-name="Grupo 31">
          <g id="Grupo_30" data-name="Grupo 30">
            <path id="Caminho_74" data-name="Caminho 74" d="M55.97,34.21l-1.19,1.159-.305.305-.976.976c-.7.732-1.434,1.434-2.135,2.135l-1.556,1.556c-.153.153-.336.305-.488.488L48.009,42.14l-3.386,3.386-1.739,1.739-1.83,1.83a.67.67,0,0,1-.946-.946l2.013-2.013.519-.519c.427-.427.824-.854,1.251-1.251l.763-.763,3.294-3.294L49.259,39l4.3-4.3c.031-.031.061-.061.061-.092l.854-.854-.915-.915-2.1-2.1L49.2,28.475l-.763-.763c-1.251-1.251-2.5-2.5-3.721-3.752l-.763-.763L42.7,21.948l-.519-.519c-.427-.4-.824-.824-1.22-1.22l-1.678-1.678-.458-.458-.092-.092c-.122-.122-.275-.244-.4-.366l-.366.366-.092.092-.458.458-5.582,5.582c-.58.58-1.129,1.159-1.708,1.708-1.037,1.037-2.1,2.074-3.142,3.142L25.956,30l-2.867,2.867-.458.458-.7.7,7.625,7.626c.4-.4.793-.763,1.159-1.159,1.861-1.861,3.721-3.721,5.551-5.582l.214-.214,2.562-2.562c.61-.61,1.525.336.946.915L35.442,37.6l-3.813,3.813-.122.122c-.366.336-.7.7-1.037,1.037l.4.4,2.227,2.227.122.122,2.837,2.837a.542.542,0,0,1,.153.61.651.651,0,0,1-1.1.305c-.793-.793-1.586-1.586-2.379-2.349h0l-.122-.122-11.53-11.53h0c-.214-.214-.427-.4-.61-.61a.831.831,0,0,1-.183-.366h0a.626.626,0,0,1,.153-.519.03.03,0,0,1,.031-.031L26.5,27.5l4.362-4.362,6.954-6.954A.673.673,0,0,1,38.278,16a.748.748,0,0,1,.488.183l1.861,1.891h.031l3.325,3.233.763.763,5,5,3.9,3.874,2.318,2.318A.7.7,0,0,1,55.97,34.21Z" transform="translate(-20.275 -16)" fill="#805ad5"/>
          </g>
        </g>
      </g>
    </g>
    <path id="Caminho_75" data-name="Caminho 75" d="M466.96,34.8H462.9a.81.81,0,0,0-.671.336l-5.46,7.778-5.46-7.747a.81.81,0,0,0-.671-.336h-4.118a.82.82,0,0,0-.824.824V55.785a.82.82,0,0,0,.824.824h4.057a.82.82,0,0,0,.824-.824V47.7c0-.946,0-1.952-.03-2.867.61.915,1.19,1.739,1.769,2.532l2.867,4.057a.81.81,0,0,0,.671.336h0a.81.81,0,0,0,.671-.336l2.867-4.057c.549-.793,1.129-1.617,1.769-2.532,0,.946-.03,1.922-.03,2.867v8.053a.82.82,0,0,0,.824.824h4.24a.82.82,0,0,0,.824-.824V35.624A.918.918,0,0,0,466.96,34.8Zm-.549,20.406H463.3V47.7c0-1.586.03-3.325.061-4.636v-.122a.857.857,0,0,0-.824-.793.9.9,0,0,0-.671.336.107.107,0,0,0-.03.061c-1.007,1.495-1.922,2.806-2.745,4.026l-2.41,3.386L454.3,46.574c-.854-1.19-1.739-2.5-2.745-4.026,0-.031-.031-.031-.031-.061a.81.81,0,0,0-.671-.336.82.82,0,0,0-.824.824v.03c.03,1.312.061,3.081.061,4.667v7.473h-2.928V36.173h3.2l5.734,8.175a.839.839,0,0,0,1.342,0l5.734-8.175h3.2V55.206Z" transform="translate(-295.662 -13.066)" fill="#805ad5"/>
    <path id="Caminho_76" data-name="Caminho 76" d="M503.6,61.561v0Z" transform="translate(-335.902 -31.622)" fill="#805ad5"/>
  </g>
</svg>
