<svg xmlns="http://www.w3.org/2000/svg" width="37.333" height="34.727" viewBox="0 0 37.333 34.727">
  <g id="Workmize_Logotipo_Fundo_Escuro" data-name="Workmize Logotipo Fundo Escuro" transform="translate(-8.04 -8.3)">
    <path id="Caminho_109" data-name="Caminho 109" d="M59.123,43.052c-.253.253-.505.523-.776.776-.2.216-.415.415-.613.631l-2.11,2.11c-.451.451-.92.9-1.371,1.371-1.136,1.136-2.291,2.273-3.427,3.409l-.794.794L48.175,54c-1.335,1.335-2.687,2.669-4,4l-6.024-6.024c.721-.7,1.425-1.425,2.146-2.146L47,43.125c1.876-1.876-1.028-4.8-2.922-2.922l-1.208,1.226q-3.815,3.842-7.648,7.648-3-3.03-6.024-6.024l2.471-2.471c1.028-1.01,2.038-2.038,3.066-3.066,3.156-3.12,6.295-6.277,9.433-9.415l2.164,2.164c.794.812,1.605,1.605,2.4,2.4l2.11,2.11,4.744,4.744c.7.721,1.425,1.425,2.128,2.146l1.317,1.317A.393.393,0,0,0,59.123,43.052Z" transform="translate(-17.343 -16.229)" fill="#fff"/>
    <g id="Grupo_59" data-name="Grupo 59" transform="translate(8.04 8.3)">
      <g id="Grupo_58" data-name="Grupo 58" transform="translate(0)">
        <g id="Grupo_57" data-name="Grupo 57">
          <path id="Caminho_110" data-name="Caminho 110" d="M45.17,27.329l-1.227,1.227-.325.325c-.343.343-.685.667-1.01,1.01-.74.758-1.479,1.479-2.219,2.219-.541.541-1.082,1.082-1.605,1.623-.162.162-.343.325-.487.487L29.713,42.8a.647.647,0,0,1-.956-.018.634.634,0,0,1-.018-.956l2.11-2.11.559-.559c.433-.433.866-.884,1.317-1.317.271-.271.541-.523.794-.794,1.136-1.154,2.291-2.291,3.427-3.427.451-.469.92-.92,1.371-1.371L42.79,27.78c.018-.036.054-.054.072-.072l.9-.884-.974-.974c-.74-.74-1.479-1.461-2.2-2.2-.794-.776-1.569-1.569-2.363-2.345l-.812-.812-3.9-3.9-.794-.794c-.433-.433-.866-.884-1.317-1.317-.18-.18-.379-.361-.559-.541l-1.281-1.281-1.75-1.75-.487-.487-.09-.09c-.126-.126-.271-.253-.4-.4l-.4.4-.09.09-.487.487c-1.966,1.93-3.9,3.878-5.844,5.808l-1.786,1.786-3.265,3.265-1.082,1.082L10.9,25.85l-.487.487-.74.74,7.954,7.954c.415-.415.812-.812,1.226-1.208l5.808-5.808.216-.216,2.669-2.669a.689.689,0,0,1,.974.974c-1.587,1.587-3.156,3.156-4.726,4.744-1.335,1.317-2.651,2.651-3.968,3.968l-.126.126c-.361.343-.74.721-1.082,1.082.144.126.271.271.415.415l2.327,2.327.108.126,2.976,2.958a.665.665,0,0,1,.18.649.683.683,0,0,1-1.136.325l-2.471-2.471h0l-.108-.108Q14.9,34.237,8.881,28.213h0l-.649-.649a.623.623,0,0,1-.18-.379h0a.651.651,0,0,1,.162-.559c0-.018.018-.018.018-.036l.126-.126,6.169-6.151c1.533-1.515,3.03-3.03,4.563-4.563l1.786-1.786h0L26.34,8.5a.73.73,0,0,1,.487-.2.775.775,0,0,1,.505.2l1.948,1.966.018.018,1.551,1.551,1.858,1.858.794.794L38.7,19.862l4.058,4.058,2.417,2.435A.686.686,0,0,1,45.17,27.329Z" transform="translate(-8.04 -8.3)" fill="#805ad5"/>
        </g>
      </g>
    </g>
  </g>
</svg>
